<svg id="Layer_1" data-name="Layer 1" xmlns="http://www.w3.org/2000/svg" viewBox="0 0 442.19 442.11"><defs><style>.cls-1{fill:none;}.cls-1,.cls-10,.cls-12,.cls-13,.cls-7,.cls-8,.cls-9{stroke:#263238;stroke-linecap:round;stroke-linejoin:round;}.cls-2{isolation:isolate;opacity:0.1;}.cls-3{fill:#e5e5e5;}.cls-4{fill:#ccc;}.cls-5,.cls-8{fill:#fff;}.cls-11,.cls-6,.cls-7{fill:#00d2ff;}.cls-9{fill:gray;}.cls-10,.cls-14{fill:#263238;}.cls-11{font-size:11px;font-family:GochiHand-Regular, Gochi Hand;}.cls-12{fill:#d2f4dc;}.cls-13{fill:#969696;}</style></defs><g id="freepik--Floor--inject-42"><line class="cls-1" x1="421.5" y1="433.1" x2="435.5" y2="433.1"/><line class="cls-1" x1="161.5" y1="433.1" x2="407.5" y2="433.1"/><line class="cls-1" x1="0.5" y1="433.1" x2="151.5" y2="433.1"/></g><g id="freepik--Graphics--inject-42"><path class="cls-2" d="M127.12,84.43c0,7.87-14.27,24.33-14.27,24.33S98.59,92.3,98.59,84.43a14.27,14.27,0,0,1,28.53,0ZM263.85,356.22a14.25,14.25,0,0,0-14.26,14.24v0c0,7.87,14.26,24.33,14.26,24.33s14.26-16.46,14.26-24.33a14.25,14.25,0,0,0-14.26-14.26ZM383,29.9a14.25,14.25,0,0,0-14.26,14.26h0C368.71,52,383,68.49,383,68.49S397.23,52,397.23,44.16A14.27,14.27,0,0,0,383,29.9ZM65.88,217.81a14.25,14.25,0,0,0-14.26,14.24v0c0,7.87,14.26,24.32,14.26,24.32s14.26-16.45,14.26-24.32A14.25,14.25,0,0,0,65.88,217.81Zm379.16-5A14.27,14.27,0,0,0,430.78,227c0,7.88,14.26,24.33,14.26,24.33S459.3,234.91,459.3,227A14.25,14.25,0,0,0,445,212.77h0ZM383,50.2h-6a1,1,0,0,1,0-2h6a1,1,0,0,1,0,2ZM321.73,375.51a1,1,0,0,0-1-1h-12a1,1,0,0,0,0,2h12A1,1,0,0,0,321.73,375.51Zm-23.9,0a1,1,0,0,0-1-1H284.89a1,1,0,0,0,0,2h11.94a1,1,0,0,0,1-1Zm34.94.91a16.9,16.9,0,0,0,11-5.75,1,1,0,1,0-1.51-1.31,14.87,14.87,0,0,1-9.69,5.07,1,1,0,1,0,.11,2ZM274,374.8a1,1,0,0,0-.51-1.32h0a12.81,12.81,0,0,1-7.21-8,1,1,0,0,0-1.26-.65h0a1,1,0,0,0-.65,1.25,14.82,14.82,0,0,0,8.33,9.2.88.88,0,0,0,.39.08A1,1,0,0,0,274,374.8ZM347.9,359V347.07a1,1,0,0,0-2,0V359a1,1,0,0,0,2,0Zm-82.21-5.07v-8.21a26.33,26.33,0,0,0-.29-3.87,1,1,0,0,0-1.14-.84h0a1,1,0,0,0-.84,1.14h0a23.64,23.64,0,0,1,.27,3.57v8.21a1,1,0,0,0,2,0Zm82.21-18.82V323.17a1,1,0,1,0-2,0v11.95a1,1,0,0,0,2,0Zm-87.42-3.23a1,1,0,0,0,.21-1.4h0a25.93,25.93,0,0,0-9.44-7.89,1,1,0,0,0-1,1.73l.13.06a23.91,23.91,0,0,1,8.71,7.29,1,1,0,0,0,1.4.21ZM240.25,321a1,1,0,0,0-1-1H227.31a1,1,0,1,0,0,2h11.94A1,1,0,0,0,240.25,321Zm-23.89,0a1,1,0,0,0-1-1h-12a1,1,0,0,0,0,2h12A1,1,0,0,0,216.36,321Zm-23.89,0a1,1,0,0,0-1-1H179.52a1,1,0,1,0,0,2h11.95A1,1,0,0,0,192.47,321Zm-23.89,0a1,1,0,0,0-1-1h-12a1,1,0,0,0,0,2h12A1,1,0,0,0,168.58,321Zm-23.9,0a1,1,0,0,0-1-1H131.74a1,1,0,0,0,0,2h11.94a1,1,0,0,0,1-1Zm-23.89,0a1,1,0,0,0-1-1H107.85a1,1,0,0,0,0,2h11.94A1,1,0,0,0,120.79,321ZM96.9,321a1,1,0,0,0-1-1H84a1,1,0,0,0,0,2H96A1,1,0,0,0,96.9,321Zm-23.68-1.6a1,1,0,0,0-.44-1.34,18.46,18.46,0,0,1-8-7.79,1,1,0,0,0-1.77.93,20.56,20.56,0,0,0,8.84,8.65,1,1,0,0,0,1.37-.46ZM62.68,299.15V287.2a1,1,0,0,0-2,0v11.95a1,1,0,0,0,2,0Zm0-23.89V263.31a1,1,0,0,0-2,0v11.95a1,1,0,0,0,2,0Zm0-23.9v-5a10.66,10.66,0,0,1,1.81-6,1,1,0,1,0-1.67-1.11h0a12.69,12.69,0,0,0-2.14,7.07v5a1,1,0,0,0,2,0Zm405.6-16.61a1,1,0,0,0,.63-1.27h0a1,1,0,0,0-1.26-.63,14.47,14.47,0,0,1-4.57.73h-7a1,1,0,0,0,0,2h7a16.69,16.69,0,0,0,5.2-.83Zm-23.13-.17a1,1,0,0,0-1-1H432.21a1,1,0,0,0,0,2h11.94a1,1,0,0,0,1-1Zm-23.89,0a1,1,0,0,0-1-1H408.32a1,1,0,0,0,0,2h11.94a1,1,0,0,0,1-1Zm-23.89,0a1,1,0,0,0-1-1H384.42a1,1,0,0,0,0,2h11.95a1,1,0,0,0,1-1Zm-23.89,0a1,1,0,0,0-1-1h-12a1,1,0,0,0,0,2h12a1,1,0,0,0,1-1Zm-23.89,0a1,1,0,0,0-1-1H336.64a1,1,0,0,0,0,2h11.95a1,1,0,0,0,1-1Zm-23.9,0a1,1,0,0,0-1-1H312.75a1,1,0,0,0,0,2h11.94a1,1,0,0,0,1-1Zm-23.89,0a1,1,0,0,0-1-1H288.86a1,1,0,0,0,0,2H300.8a1,1,0,0,0,1-1Zm-23.89,0a1,1,0,0,0-1-1H265a1,1,0,0,0,0,2h12a1,1,0,0,0,.91-1Zm-23.89,0a1,1,0,0,0-1-1H241a1,1,0,0,0,0,2h12a1,1,0,0,0,1-1Zm-23.89,0a1,1,0,0,0-1-1H217.18a1,1,0,0,0,0,2h11.95a1,1,0,0,0,1-1Zm-23.9,0a1,1,0,0,0-1-1H193.29a1,1,0,0,0,0,2h11.94a1,1,0,0,0,1-1Zm-23.89,0a1,1,0,0,0-1-1H169.4a1,1,0,0,0,0,2h11.94a1,1,0,0,0,1-1Zm-23.89,0a1,1,0,0,0-1-1H145.5a1,1,0,0,0,0,2h11.95a1,1,0,0,0,1-1Zm-23.89,0a1,1,0,0,0-1-1h-12a1,1,0,1,0,0,2h12a1,1,0,0,0,1-1Zm-23.89,0a1,1,0,0,0-1-1h-12a1,1,0,1,0,0,2h12a1,1,0,0,0,1-1Zm-23.9,0a1,1,0,0,0-1-1H73.83a1,1,0,0,0,0,2H85.77a1,1,0,0,0,1-1Zm391-7.87a16.45,16.45,0,0,0,1.88-7.65v-4.47a1,1,0,0,0-2,0v4.47a14.55,14.55,0,0,1-1.65,6.72,1,1,0,1,0,1.75,1Zm1.88-24.07V190.7a1,1,0,1,0-2,0v11.94a1,1,0,0,0,2,0Zm0-23.89v-4.14a16.57,16.57,0,0,0-2-8,1,1,0,0,0-1.36-.39h0a1,1,0,0,0-.39,1.35,14.63,14.63,0,0,1,1.79,7v4.14a1,1,0,0,0,2,0Zm-11-18.69a1,1,0,0,0-.66-1.25,16.68,16.68,0,0,0-4.86-.72h-7.31a1,1,0,0,0,0,2h7.31a14.35,14.35,0,0,1,4.27.64.76.76,0,0,0,.3,0,1,1,0,0,0,.9-.67Zm-23.77-1a1,1,0,0,0-1-1h-12a1,1,0,0,0,0,2h11.95a1,1,0,0,0,1-1Zm-23.9,0a1,1,0,0,0-1-1H408a1,1,0,0,0,0,2h11.94a1,1,0,0,0,1-1Zm-23.89,0a1,1,0,0,0-1-1h-12a1,1,0,0,0,0,2H396a1,1,0,0,0,1-1Zm-23.89,0a1,1,0,0,0-1-1h-12a1,1,0,0,0,0,2h11.95a1,1,0,0,0,1-1Zm-23.89,0a1,1,0,0,0-1-1h-12a1,1,0,0,0,0,2h11.95a1,1,0,0,0,1-1Zm-23.89,0a1,1,0,0,0-1-1h-12a1,1,0,0,0,0,2h11.95a1,1,0,0,0,1-1Zm-23.9,0a1,1,0,0,0-1-1h-12a1,1,0,0,0,0,2h11.94a1,1,0,0,0,1-1Zm-23.89,0a1,1,0,0,0-1-1h-12a1,1,0,0,0,0,2h11.94a1,1,0,0,0,1-1Zm-23.89,0a1,1,0,0,0-1-1h-12a1,1,0,0,0,0,2h11.95a1,1,0,0,0,1-1Zm-23.89,0a1,1,0,0,0-1-1h-12a1,1,0,1,0,0,2h12a1,1,0,0,0,1-1Zm-23.89,0a1,1,0,0,0-1-1H193a1,1,0,0,0,0,2H205a1,1,0,0,0,1-1Zm-23.9,0a1,1,0,0,0-1-1h-12a1,1,0,0,0,0,2H181a1,1,0,0,0,1-1Zm-23.89,0a1,1,0,0,0-1-1h-12a1,1,0,0,0,0,2h11.94a1,1,0,0,0,1-1Zm-23.89,0a1,1,0,0,0-1-1h-12a1,1,0,0,0,0,2h11.95a1,1,0,0,0,1-1Zm-23.2-3a1,1,0,0,0,0-1.41h0a12.31,12.31,0,0,1-3.85-9v-1.08a1,1,0,0,0-2,0v1.08a14.3,14.3,0,0,0,4.47,10.44.88.88,0,0,0,1.3,0Zm-3.89-23.43V120.69a1,1,0,0,0-2,0v11.95a1,1,0,0,0,2,0Zm0-23.9v-2.5a14.92,14.92,0,0,1,2.54-8.34A1,1,0,0,0,108,96.78a16.79,16.79,0,0,0-2.89,9.46v2.5a1,1,0,0,0,2,0Zm11.54-17a15,15,0,0,1,3.4-.39h8.29a1,1,0,0,0,0-2h-8.29a17.16,17.16,0,0,0-3.85.44,1,1,0,0,0-.75,1.2h0a1,1,0,0,0,1,.77l.15-.06Zm23.79-.63A16.18,16.18,0,0,0,153,84.42a1,1,0,0,0-1.64-1.14,14.16,14.16,0,0,1-9.15,5.85,1,1,0,0,0,.17,2ZM155.8,72.42V64.3a14.61,14.61,0,0,1,.44-3.54,1,1,0,1,0-1.88-.67,1.21,1.21,0,0,0-.05.18,15.9,15.9,0,0,0-.51,4v8.12a1,1,0,0,0,2,0Zm7-20.31a14.12,14.12,0,0,1,7.09-1.91h4a1,1,0,0,0,0-2h-4a16.1,16.1,0,0,0-8.1,2.18,1,1,0,0,0-.36,1.37h0a1,1,0,0,0,1.37.36ZM366,49.2a1,1,0,0,0-1-1H353.07a1,1,0,0,0,0,2H365A1,1,0,0,0,366,49.2Zm-23.89,0a1,1,0,0,0-1-1H329.18a1,1,0,0,0,0,2h11.95a1,1,0,0,0,1-1Zm-23.89,0a1,1,0,0,0-1-1H305.29a1,1,0,0,0,0,2h11.95a1,1,0,0,0,1-1Zm-23.9,0a1,1,0,0,0-1-1H281.4a1,1,0,0,0,0,2h11.94a1,1,0,0,0,1-1Zm-23.89,0a1,1,0,0,0-1-1H257.51a1,1,0,0,0,0,2h11.94a1,1,0,0,0,1-1Zm-23.89,0a1,1,0,0,0-1-1H233.61a1,1,0,0,0,0,2h11.95a1,1,0,0,0,1-1Zm-23.89,0a1,1,0,0,0-1-1H209.72a1,1,0,0,0,0,2h11.95a1,1,0,0,0,1-1Zm-23.89,0a1,1,0,0,0-1-1H185.83a1,1,0,0,0,0,2h11.95a1,1,0,0,0,1-1ZM347.9,311.05v-6a1,1,0,0,0-2,0v6a1,1,0,1,0,2,0Z" transform="translate(-37.5 -29.9)"/><path class="cls-2" d="M87.38,156.7v-5.12h-3.3v5.12H75.82v-5.12h-3.3v5.12H64.26v-5.12H61v5.12H57.39v31H90.94v-31ZM68,180.66H62.71v-5.29H68Zm0-8.37H62.71V167H68Zm8.81,8.37H71.52v-5.29h5.29Zm0-8.37H71.52V167h5.29Zm8.81,8.37H80.33v-5.29h5.29Zm0-8.37H80.33V167h5.29Z" transform="translate(-37.5 -29.9)"/><path class="cls-2" d="M281.38,409.7v-5.12h-3.3v5.12h-8.26v-5.12h-3.3v5.12h-8.26v-5.12H255v5.12h-3.56v31H285v-31ZM262,433.7h-5.29v-5.29H262Zm0-8.37h-5.29V420H262Zm8.81,8.37h-5.29v-5.29h5.29Zm0-8.37h-5.29V420h5.29Zm8.81,8.37h-5.29v-5.29h5.29Zm0-8.37h-5.29V420h5.29Z" transform="translate(-37.5 -29.9)"/><path class="cls-2" d="M437.57,37.41V32.3h-3.3v5.11H426V32.3h-3.3v5.11h-8.25V32.3h-3.31v5.11h-3.56v31h33.55v-31Zm-19.38,24H412.9V56.08h5.29Zm0-8.37H412.9V47.71h5.29ZM427,61.37h-5.29V56.08H427ZM427,53h-5.29V47.71H427Zm8.81,8.37h-5.29V56.08h5.29Zm0-8.37h-5.29V47.71h5.29Z" transform="translate(-37.5 -29.9)"/></g><g id="freepik--Window--inject-42"><path class="cls-3" d="M183.28,78h260a4.09,4.09,0,0,1,4.1,4.08h0V340.62H179.19V82.08A4.09,4.09,0,0,1,183.28,78Z" transform="translate(-37.5 -29.9)"/><path class="cls-4" d="M225.14,165.77a7,7,0,1,1-7-6.94h0A7,7,0,0,1,225.14,165.77Z" transform="translate(-37.5 -29.9)"/><path class="cls-5" d="M447.38,107.31l-34.71,33.33a79.5,79.5,0,0,0-15.27.2,1.67,1.67,0,0,1-1.27-.47c-6.5-5.1-12.56-42.25-15.19-62.38H379c2.09,16,8.2,57.81,15.92,63.87a3.51,3.51,0,0,0,2.68.86,73,73,0,0,1,13.22-.34l-28.09,27L343.25,140.1A10.07,10.07,0,0,0,330,141.24c-4.25,4.45-7.47,8-9.59,10.7-2.8,3.49-7.22,9-12.15,15l-14.69-11.83h0c8.72-11.5,16.26-21.44,20.71-26.56,9.05-10.41,30-36.67,41-50.52h-2.42c-11.19,14.1-31.22,39.18-40,49.28-4.49,5.16-12,15.11-20.76,26.63l-20-16.11a.9.9,0,0,0-.32-1.25.93.93,0,0,0-1.1.11L251,120.88a1,1,0,0,0-1.33,1.36l.14.11,19.64,15.81c-2.81,3.61-10.7,13.79-16.33,21.39L200.5,119a1,1,0,0,0-1.16,1.5L252,161.08c-1.16,1.58-2.19,3-3,4.19-6.24,9-14.59,17.59-29.24,12.9-15-4.8-17-15.83-17-16.29a1,1,0,0,0-.32-.58l-13.68-11.75c1-7.3,2.17-17.55,3.45-32,1.36-15.29,2.43-30.56,3-39.57h-1.85c-1.51,23-3.86,51.79-6.29,70.12L179.92,142v2.5l6.86,5.9c-1.25,9-2.52,15-3.69,15.83a24.16,24.16,0,0,0-3.17,1.8v2.3a23.89,23.89,0,0,1,3.94-2.36c.81-.36,2.36-1,4.6-16.12l12.46,10.71c.45,2.11,3.44,12.7,18.25,17.44a27.8,27.8,0,0,0,8.43,1.41c10.91,0,17.9-7.74,22.94-15,.8-1.16,1.82-2.56,3-4.11l20.26,15.62c-10.87,14-21.57,27-29.05,34-8.92,8.3-20.17,18-29.33,25.78-12.83-8.42-24.86-17.52-25-17.64h-.06l-.06-.05L180,214.4v2.14l7.31,4c-1.75.45-4.35,1.08-7.31,1.68V224c4.59-.94,8.37-1.92,9.67-2.28,2.11,1.59,12.81,9.58,24.28,17.12-8.65,7.31-15.08,12.57-15.21,12.68a1,1,0,0,0-.14,1.34,1,1,0,0,0,1.34.13c.13-.11,6.78-5.56,15.66-13.06,2.64,1.71,5.29,3.38,7.87,4.93l6,3.53c5.16,3.05,11.44,6.77,17.65,10.68L229,278.75a1,1,0,0,0-.19,1,1,1,0,0,0,.81.6c.17,0,16.76,1.45,30.24,20.44,11.73,16.52,22.86,30.41,42.51,39.82H307c-21.67-9.23-33.28-23.6-45.57-40.91-11.47-16.18-24.93-20.06-29.79-21l17.14-18.61c12.39,7.91,24.09,16.49,25.48,22.05,2,8.1,11.86,18.1,16.59,22.91,1.21,1.23,2.25,2.29,2.48,2.64,1.32,2,10,6.91,11.69,7.88l.21.08c1.7.48,12.14,3.32,20.42,3.32,4.32,0,8-.77,9.65-3.06,2.56-3.64,10-9.5,16-14.2,4.24-3.34,7.91-6.22,9.25-7.83.37-.45,2.07-2,4.79-4.48l7.06,7.06-53.9,44.13h3L373.7,297.8l9.32,9.32-37.65,33.47h2.85L385,307.87a.94.94,0,0,0,.05-1.33.12.12,0,0,0-.05-.05l-9.89-9.89,45.27-37.08,15.38,12.38-56.87,50.55a6.46,6.46,0,0,0,8.36,9.84l59.36-51.67.84.68v-3.92l-.89.77-7.87-6.33,8.76-7.79V261.5l-10.25,9.11-15.32-12.33,25.47-20.89V235l-27.1,22.12-9.62-7.75c12.73-11.11,25.85-22.51,36.7-31.93v-2.5c-7.64,6.63-22.66,19.68-38.2,33.24l-19-15.29c16.73-16.48,39.23-38.79,42.79-43.14,6-7.34,8.37-28.72,2.62-38.94-3.47-6.17-12-8.88-20.46-9.9l32.24-31ZM437.17,273.14l7.85,6.32-59.08,51.42a4.57,4.57,0,0,1-5.89-7h0Zm-115.32-120c2-2.57,5.33-6.22,9.48-10.58a8.17,8.17,0,0,1,10.77-.92l39.28,29.05-31.21,30L309.7,168.1c6.75-8.25,12-14.82,12.15-15Zm-29.47,3.46L307,168.38c-5.54,6.74-11.59,14-16.64,19.86l-14-10.75C281.85,170.49,287.3,163.3,292.38,156.6Zm-37.78,4.08c5.6-7.58,13.48-17.73,16.3-21.36l20,16.08c-5.09,6.73-10.55,13.92-16,20.92ZM246,213.18c7.57-7,18.34-20.17,29.26-34.2l13.89,10.71c-4.68,5.38-8.31,9.29-9.54,10-3.33,1.91-29.54,14.88-41.73,20.91,2.84-2.55,5.58-5,8.13-7.42Zm2.31,44.49c-6.19-3.91-12.54-7.66-18-10.89-2.15-1.27-4.15-2.45-5.93-3.52-2.41-1.45-4.88-3-7.34-4.59,4.81-4.08,10.17-8.68,15.46-13.32h0c1.78-.89,43.64-21.51,48-24,1.41-.81,5.32-5,10.21-10.62h.05a.93.93,0,0,0,.75-.37.91.91,0,0,0,.17-.76c5.22-6,11.38-13.45,16.78-20L348.78,202,328,221.92h0L295.74,261.6l-29-22.71a1,1,0,0,0-1.29.11Zm85.29,57.2c-3.29,4.7-21.15.92-27.9-1-3.84-2.17-10.12-6-10.94-7.22a28.83,28.83,0,0,0-2.71-2.92c-4.61-4.68-14.2-14.43-16.1-22-1.53-6.13-13.26-14.86-26-23L266.29,241l29,22.81a1,1,0,0,0,1.32-.14L328,225l9.82,85.34a32.39,32.39,0,0,0-4.23,4.53Zm30.87-27.36c-3.13,2.82-5.13,4.67-5.57,5.2-1.21,1.45-5,4.42-9,7.55-3.5,2.76-7.25,5.72-10.38,8.45L329.68,223l20.58-19.77L387.32,233c-9.5,9.36-16.8,16.5-17,16.68a1.11,1.11,0,0,0-.27.54Zm44.75-36.87,9.57,7.71-45.11,36.94-7.12-7.12c8.66-7.78,25.2-22.28,42.67-37.54Zm-1.5-1.21c-15.75,13.74-31.81,27.83-41,36.09l5.2-34.68c1.49-1.46,8.33-8.15,16.94-16.62Zm-19-17.75-37-29.81,31.27-30,37.8,28c-9,9-21.68,21.56-32.09,31.8Zm45.25-80c5.33,9.5,3.1,30-2.44,36.81-1.2,1.47-4.69,5.12-9.44,9.94l-37.76-28,29.07-27.85c8.78.89,17.39,3.52,20.55,9.13Z" transform="translate(-37.5 -29.9)"/><rect class="cls-5" x="250.03" y="280.39" width="150.61" height="25.97"/><rect class="cls-6" x="260.18" y="292.8" width="9.91" height="11.33"/><rect class="cls-6" x="273.87" y="292.55" width="9.91" height="11.57"/><rect class="cls-6" x="287.56" y="289.96" width="9.91" height="14.16"/><rect class="cls-6" x="301.25" y="296.58" width="9.91" height="7.55"/><rect class="cls-6" x="314.94" y="289.02" width="9.91" height="15.11"/><rect class="cls-6" x="328.64" y="293.5" width="9.91" height="10.62"/><rect class="cls-6" x="342.33" y="298.45" width="9.91" height="5.67"/><rect class="cls-6" x="356.02" y="295.62" width="9.92" height="8.5"/><rect class="cls-6" x="369.71" y="297.99" width="9.91" height="6.14"/><rect class="cls-6" x="383.41" y="289.02" width="9.91" height="15.11"/><path class="cls-4" d="M179.92,340.62h67c-4.59-2.2-11.49-5.66-12.33-6.91-1.26-1.89-8.2-13.89-12-14.51s-5.05,3.79-5.05,3.79l8.2,13.26-3.15-1.9s-7.58-8.21-9.47-9.47,0-6.31.63-10.1,5-6.31,6.31-9.47,0-12.63,0-15.78-5.68-12.63-9.47-20.21-16.41-22.09-23.36-25.25a26.51,26.51,0,0,0-7.34-1.87Z" transform="translate(-37.5 -29.9)"/><polygon class="cls-4" points="300.02 123.25 289.92 135.88 302.55 152.29 325.91 140.29 300.02 123.25"/><polygon class="cls-4" points="312.65 180.07 298.13 193.97 303.81 224.9 319.59 229.31 324.65 216.06 339.8 201.53 312.65 180.07"/><path class="cls-1" d="M183.28,78h260a4.09,4.09,0,0,1,4.1,4.08h0V340.62H179.19V82.08A4.09,4.09,0,0,1,183.28,78Z" transform="translate(-37.5 -29.9)"/><path class="cls-7" d="M183.28,78h260a4.09,4.09,0,0,1,4.1,4.08h0v46.41H179.19V82.08A4.09,4.09,0,0,1,183.28,78Z" transform="translate(-37.5 -29.9)"/><rect class="cls-8" x="159.23" y="79.68" width="211.5" height="8.84"/><path class="cls-9" d="M443.48,78H196.56v22.74H447.38V81.86A3.88,3.88,0,0,0,443.49,78Z" transform="translate(-37.5 -29.9)"/><path class="cls-10" d="M183.28,78h260a4.09,4.09,0,0,1,4.1,4.08h0v10.7H179.19V82.08A4.09,4.09,0,0,1,183.28,78Z" transform="translate(-37.5 -29.9)"/><circle class="cls-5" cx="398.84" cy="55.74" r="2.02"/><circle class="cls-5" cx="390.5" cy="55.74" r="2.02"/><circle class="cls-5" cx="382.16" cy="55.74" r="2.02"/></g><g id="freepik--Locations--inject-42"><path class="cls-10" d="M374.9,168H341.6a4.72,4.72,0,0,0-4.73,4.71h0V204a4.72,4.72,0,0,0,4.72,4.72h9.86L358.69,223l6.65-14.25h9.56a4.72,4.72,0,0,0,4.72-4.72h0V172.72A4.72,4.72,0,0,0,374.9,168Z" transform="translate(-37.5 -29.9)"/><text class="cls-11" transform="translate(301.5 149.08) scale(0.9 1)">REFILL<tspan x="0" y="13.2">SPAIRUM</tspan><tspan x="0" y="26.4">here</tspan></text><circle class="cls-7" cx="320.75" cy="199.95" r="3.69"/><circle class="cls-7" cx="206.87" cy="107.61" r="3.69"/><path class="cls-7" d="M296.69,228.62a3.69,3.69,0,1,1-3.69-3.7,3.69,3.69,0,0,1,3.69,3.7Z" transform="translate(-37.5 -29.9)"/><circle class="cls-7" cx="177.11" cy="170.91" r="3.69"/><path class="cls-7" d="M229.92,293.69a3.7,3.7,0,1,1-3.7-3.7,3.7,3.7,0,0,1,3.7,3.7Z" transform="translate(-37.5 -29.9)"/><circle class="cls-7" cx="363.49" cy="257.68" r="3.69"/><circle class="cls-7" cx="382.4" cy="144.02" r="3.69"/><circle class="cls-7" cx="362.61" cy="108.23" r="3.69"/><path class="cls-7" d="M410.18,233.78a3.7,3.7,0,1,1-3.7-3.7h0a3.69,3.69,0,0,1,3.69,3.69Z" transform="translate(-37.5 -29.9)"/><circle class="cls-7" cx="270.89" cy="165.48" r="3.69"/></g><g id="freepik--Character--inject-42"><path class="cls-10" d="M95.5,357s2.25,25,3,30.25-2.5,8.5-5.75,12-4.5,10.75-4.5,16.25-.75,33-.75,34.75-.5,6-.5,6,8-.25,9-.25,4.75-14.25,5.75-18.25,8.75-29.25,11.75-36.25,3-12.25,4.25-15,2.75-25.25,2.75-25.25,13.5,23.75,14,27,.75,4-.5,6.75-4,7.75-3.75,18.5,6.15,29.77,6.15,29.77l.75,11.75s4.5,1.75,6.75,2.75,5.75-4.25,5.75-4.25-.15-8.77-.4-15.27,1.5-30,2.5-34,2.5-12.75,1.5-18.25S149,355.25,149,355.25s-38,2.25-42.75,1.5-11-1-11-1Z" transform="translate(-37.5 -29.9)"/><path class="cls-8" d="M100.5,447.75l1.5,7.75s6.25,5.25,8.75,7.25,4,1.5,4,3.25-1.75,4.5-6,5.25S98.75,471,94,469.5a14.35,14.35,0,0,1-6.93-4.5s-2.62.61-2.62-2.39,2.16-9.8,2.16-9.8-1-3.72,0-4.22S91,451.75,91,451.75,91.5,443,100.5,447.75Z" transform="translate(-37.5 -29.9)"/><path class="cls-12" d="M114.62,466.86a2.26,2.26,0,0,0-1.56.08,19,19,0,0,1-18,.36c-5.89-2.82-8.9-5.65-10.31-7.31a15.71,15.71,0,0,0-.31,2.65c0,3,2.62,2.39,2.62,2.39A14.33,14.33,0,0,0,94,469.5c4.75,1.5,10.5,2.5,14.75,1.75C112.35,470.61,114.15,468.54,114.62,466.86Z" transform="translate(-37.5 -29.9)"/><path class="cls-8" d="M151.84,447.52a3.35,3.35,0,0,0-3.64,1.83c-1.12,2.35-2.24,5.49-2.24,5.49a33.08,33.08,0,0,1-5.59-1,8.07,8.07,0,0,1-2.24-1.83s-2.24-4.44-3.64-2.87,1.4,6.79,1.4,6.79-2.24,4.18-2.24,6.8a15.12,15.12,0,0,0,1.12,5.22,42.58,42.58,0,0,0,8.11,1.05c3.64,0,3.92-1.05,7.84-1.05s14,2.35,17.35,1.57,6.44-3.14,6.16-4.7-11.76-5.49-15.4-7.84-4.19-2.09-4.75-3.14S151.84,447.52,151.84,447.52Z" transform="translate(-37.5 -29.9)"/><path class="cls-7" d="M174.24,465c-3.86,3.9-9,3.3-13.36,2.42A60,60,0,0,0,144.52,466a58.15,58.15,0,0,1-10.47-.35,15,15,0,0,0,.72,2.24,42.58,42.58,0,0,0,8.11,1.05c3.64,0,3.92-1.05,7.84-1.05s14,2.35,17.35,1.57C171.26,468.72,174.19,466.57,174.24,465Z" transform="translate(-37.5 -29.9)"/><path class="cls-8" d="M89.75,348,89,359.16s18.75,4.25,34.25,3.81,32-6.94,32-6.94L152,344.39s-34.25-.22-41-.67-11-5.15-13.5-4.48-5.5,8.51-5.5,8.51Z" transform="translate(-37.5 -29.9)"/><path class="cls-13" d="M152,336.25l2.25,11.5s-4.75,2.75-19.25,4-33-.5-33-.5l-3.5-7.5-1.25,8.75H90a3.79,3.79,0,0,1-2-.5l2.25-9.25s1-9.25,5.75-11.5,8.75.25,12,3.25,7,2.5,12.25,2.5,27.5-2.25,27.5-2.25S151.5,333.5,152,336.25Z" transform="translate(-37.5 -29.9)"/><path class="cls-7" d="M144.5,251.25s9,23,12.75,31.25,7.25,17.75,6.75,23-6.75,19-6.75,19-6-39.5-7.25-43.5-7-26.25-7-26.25S140.5,250,144.5,251.25Z" transform="translate(-37.5 -29.9)"/><path class="cls-7" d="M95.41,242.53s-5.25,5.45-6.87,12.11-2.82,89.81-2.82,91.22,6-1.82,7.26-2.42,6.26-10.09,6.26-10.09l2.42,9.68s11.1-1.21,20.39-1.21,33.7-2.22,33.7-2.22,2.22-13.52,2-20.79S156,300.05,156,298.23s-7.67-40.16-10.49-45.81-6.46-10.7-7.07-11.1-7.87-4.65-14.73-5-11.5-2.22-17.56.61S95.41,242.53,95.41,242.53Z" transform="translate(-37.5 -29.9)"/><path class="cls-1" d="M134.76,267.35s3.43,19.78,4.44,26.44,3.23,32.69,3.23,36.53v9.08" transform="translate(-37.5 -29.9)"/><path class="cls-1" d="M128.71,275.83s3.83,19.78,5.85,31.68S136,336.37,136,336.37" transform="translate(-37.5 -29.9)"/><polyline class="cls-1" points="69.41 247.54 86.77 245.93 87.37 249.76 70.62 251.17"/><polyline class="cls-1" points="112.8 243.5 102.71 244.31 103.52 247.74 112.4 246.94"/><path class="cls-10" d="M121.24,224.36s-9.29-1.81-12.11-.6-5.45,6.05-6.26,7.67-9.28,5-9.89,7.46-.2,6.46.81,7.47,6.86.61,8.28,1,20.38,12.92,23.61,14.94,8.88,4.84,9.69,4,5.85-13.3,6.63-19.13-.21-7.27-2.83-12.11S126.08,225,121.24,224.36Z" transform="translate(-37.5 -29.9)"/><path class="cls-8" d="M118.41,208.42s1.42,8.88,1.42,11.3S116,233.65,116,233.65s7.67,16.55,11.91,21.19,6.26,5.65,6.26,5.65.6-9.49,1.21-13.93,7-17.42,7-17.42-9.61,1.48-10.82-4.78-.81-11.7-2-14.93S120.84,207,118.41,208.42Z" transform="translate(-37.5 -29.9)"/><path class="cls-10" d="M132.05,226.17l-4.61-.86.38,4s2.84,7.39,8.15,11.18a9.64,9.64,0,0,0,.86.55c1.1-3.18,5.52-11.88,5.52-11.88S134,231.46,132.05,226.17Z" transform="translate(-37.5 -29.9)"/><path class="cls-8" d="M148.29,205.94l-.32,5.54s5,3.62,5.5,5.37-2.42,4-2.42,4-.45,9.56-1.28,11.06-5,1.62-7.3,1.64-13.71-3.26-15.68-5-4.35-8-4.35-8-2.52-8.93-2.91-10.29,1-3.22,7-5.11S148.61,203.34,148.29,205.94Z" transform="translate(-37.5 -29.9)"/><path class="cls-10" d="M121.32,212.45s1.38,3.08,4,1.14a9.49,9.49,0,0,0,3.11-5.55l-15.28,4.14s-1.19,6.22,1.21,9.18,5.9,1.28,5.7-1.26S121.32,212.45,121.32,212.45Z" transform="translate(-37.5 -29.9)"/><path class="cls-1" d="M146.88,224s-3.33.1-5.29-1.66" transform="translate(-37.5 -29.9)"/><path class="cls-14" d="M143.26,211.87c.26.91.12,1.75-.31,1.87s-1-.52-1.25-1.43-.11-1.75.32-1.87S143,211,143.26,211.87Z" transform="translate(-37.5 -29.9)"/><path class="cls-10" d="M112.9,212.79s9-1.5,19.89-4.57,15.62-4.83,15.62-4.83l-4.86-15.34a5.86,5.86,0,0,0-3-3c-3.11-1.4-9.57-1.08-14.22-.36-6.63,1-11.76,2.91-14.41,7.64a17.51,17.51,0,0,0-1.48,12.58C111.17,207.4,112.9,212.79,112.9,212.79Z" transform="translate(-37.5 -29.9)"/><path class="cls-10" d="M129.1,209.26s16.53-.89,22.85-2.25,11.53-8.92,11.53-8.92l-15.14,2A34.86,34.86,0,0,0,129.1,209.26Z" transform="translate(-37.5 -29.9)"/><path class="cls-8" d="M122.82,213.76s-1.4-4.22-5-2.79-1.61,8.43,1.07,11.23,6-1.06,6-1.06" transform="translate(-37.5 -29.9)"/><path class="cls-10" d="M140.41,299,158,285.85a.6.6,0,0,1,.41-.11l12.33,1.18a.72.72,0,0,1,.3,1.33l-15.68,9.37Z" transform="translate(-37.5 -29.9)"/><path class="cls-8" d="M129.51,299.84a8.21,8.21,0,0,0,4.65-2c1.81-1.82,5-7.27,6.45-7.67a86.14,86.14,0,0,1,10.09-1.62c1.42,0,2.22,1,1,2.22s-6.86,3.84-6.86,3.84l-.6,2s15.33-1.81,16.55-1.81a2.15,2.15,0,0,1,2,2c0,.8-3.23,3.23-4.23,4.23a79.26,79.26,0,0,1-7.88,5.86c-1.41.8-15.94-.41-16.54-.41s-4.85,1-4.85,1Z" transform="translate(-37.5 -29.9)"/><path class="cls-1" d="M161,298.63s-6.46,1.42-7.87,2.22-6.26,0-6.26,0" transform="translate(-37.5 -29.9)"/><polyline class="cls-1" points="118.85 272.77 114.41 274.18 109.77 274.38"/><path class="cls-7" d="M106.51,261.5c.2,3.63-4.24,25.63-4.24,25.63l1,3.23v.81l28.05,7.66s0,7.67-1.21,11.1a73.42,73.42,0,0,0-2.22,9.49s-12.31-3-22.4-6.46-25.84-8.47-28.86-11.91-1.21-12.1-.81-13.52,11.7-31.08,13.92-35.11,5.45-7.87,9.69-6.66,7.47,6.66,7.87,9.08" transform="translate(-37.5 -29.9)"/><path class="cls-1" d="M88.17,291.86A30.59,30.59,0,0,1,93,289.55c1.82-.4,8.88,1.21,8.88,1.21" transform="translate(-37.5 -29.9)"/><path class="cls-1" d="M82.29,295.2s1.7-1,3.77-2.17" transform="translate(-37.5 -29.9)"/><path class="cls-1" d="M94.89,285.11a12.22,12.22,0,0,0-3.12-1c-1.41,0-7.67,3-7.67,3" transform="translate(-37.5 -29.9)"/><path class="cls-1" d="M100.25,287.53s-1.16-.56-2.64-1.23" transform="translate(-37.5 -29.9)"/></g></svg>