<?xml version="1.0" encoding="utf-8"?>
<!-- Generator: Adobe Illustrator 26.0.2, SVG Export Plug-In . SVG Version: 6.00 Build 0)  -->
<svg version="1.1" id="Layer_1" xmlns="http://www.w3.org/2000/svg" xmlns:xlink="http://www.w3.org/1999/xlink" x="0px" y="0px"
	 viewBox="0 0 500 500" style="enable-background:new 0 0 500 500;" xml:space="preserve">
<style type="text/css">
	.st0{fill:none;stroke:#263238;stroke-linecap:round;stroke-linejoin:round;}
	.st1{opacity:0.1;enable-background:new    ;}
	.st2{fill:#E5E5E5;}
	.st3{fill:#CCCCCC;}
	.st4{fill:#FFFFFF;}
	.st5{fill:#00D2FF;}
	.st6{fill:#00D2FF;stroke:#263238;stroke-linecap:round;stroke-linejoin:round;}
	.st7{fill:#FFFFFF;stroke:#263238;stroke-linecap:round;stroke-linejoin:round;}
	.st8{fill:#808080;stroke:#263238;stroke-linecap:round;stroke-linejoin:round;}
	.st9{fill:#263238;stroke:#263238;stroke-linecap:round;stroke-linejoin:round;}
	.st10{display:none;fill:#00D2FF;}
	.st11{font-family:'GochiHand-Regular';}
	.st12{font-size:11px;}
	.st13{fill:#D2F4DC;stroke:#263238;stroke-linecap:round;stroke-linejoin:round;}
	.st14{fill:#969696;stroke:#263238;stroke-linecap:round;stroke-linejoin:round;}
	.st15{fill:#263238;}
</style>
<g id="freepik--Floor--inject-42">
	<line class="st0" x1="459" y1="463" x2="473" y2="463"/>
	<line class="st0" x1="199" y1="463" x2="445" y2="463"/>
	<line class="st0" x1="38" y1="463" x2="189" y2="463"/>
</g>
<g id="freepik--Graphics--inject-42">
	<path class="st1" d="M127.1,84.4c0,7.9-14.3,24.3-14.3,24.3S98.6,92.3,98.6,84.4c0.2-7.9,6.8-14.1,14.6-13.9
		C120.8,70.7,126.9,76.8,127.1,84.4z M263.9,356.2c-7.9,0-14.3,6.4-14.3,14.2c0,0,0,0,0,0c0,7.9,14.3,24.3,14.3,24.3
		s14.3-16.5,14.3-24.3C278.1,362.6,271.7,356.2,263.9,356.2C263.9,356.2,263.9,356.2,263.9,356.2z M383,29.9
		c-7.9,0-14.3,6.4-14.3,14.3c0,0,0,0,0,0c0,7.8,14.3,24.3,14.3,24.3s14.2-16.5,14.2-24.3C397.2,36.3,390.9,29.9,383,29.9z
		 M65.9,217.8c-7.9,0-14.3,6.4-14.3,14.2c0,0,0,0,0,0c0,7.9,14.3,24.3,14.3,24.3s14.3-16.4,14.3-24.3
		C80.1,224.2,73.8,217.8,65.9,217.8z M445,212.8c-7.8,0-14.2,6.3-14.3,14.2c0,7.9,14.3,24.3,14.3,24.3s14.3-16.4,14.3-24.3
		C459.3,219.1,452.9,212.8,445,212.8C445,212.8,445,212.8,445,212.8L445,212.8z M383,50.2h-6c-0.6,0-1-0.4-1-1s0.4-1,1-1h6
		c0.6,0,1,0.4,1,1S383.6,50.2,383,50.2z M321.7,375.5c0-0.6-0.4-1-1-1h-12c-0.6,0-1,0.4-1,1s0.4,1,1,1h12
		C321.3,376.5,321.7,376.1,321.7,375.5z M297.8,375.5c0-0.6-0.4-1-1-1h-11.9c-0.6,0-1,0.4-1,1s0.4,1,1,1h11.9
		C297.4,376.5,297.8,376.1,297.8,375.5L297.8,375.5z M332.8,376.4c4.3-0.5,8.2-2.5,11-5.8c0.4-0.4,0.3-1-0.1-1.4
		c-0.4-0.4-1-0.3-1.4,0.1c-2.5,2.9-5.9,4.7-9.7,5.1c-0.6,0-1,0.5-0.9,1.1S332.1,376.5,332.8,376.4L332.8,376.4z M274,374.8
		c0.2-0.5,0-1.1-0.5-1.3c0,0,0,0,0,0c-3.5-1.5-6.1-4.4-7.2-8c-0.2-0.5-0.7-0.8-1.3-0.7c0,0,0,0,0,0c-0.5,0.2-0.8,0.7-0.6,1.2
		c1.3,4.1,4.3,7.5,8.3,9.2c0.1,0.1,0.3,0.1,0.4,0.1C273.5,375.4,273.8,375.1,274,374.8z M347.9,359v-11.9c0-0.6-0.4-1-1-1
		s-1,0.4-1,1V359c0,0.6,0.4,1,1,1S347.9,359.6,347.9,359z M265.7,353.9v-8.2c0-1.3-0.1-2.6-0.3-3.9c-0.1-0.5-0.6-0.9-1.1-0.8
		c0,0,0,0,0,0c-0.5,0.1-0.9,0.6-0.8,1.1c0,0,0,0,0,0c0.2,1.2,0.3,2.4,0.3,3.6v8.2c0,0.6,0.4,1,1,1S265.7,354.5,265.7,353.9
		L265.7,353.9z M347.9,335.1v-11.9c0-0.6-0.4-1-1-1s-1,0.4-1,1v12c0,0.6,0.4,1,1,1S347.9,335.7,347.9,335.1L347.9,335.1z
		 M260.5,331.9c0.4-0.3,0.5-1,0.2-1.4c0,0,0,0,0,0c-2.5-3.3-5.7-6.1-9.4-7.9c-0.5-0.3-1.1-0.1-1.4,0.4c-0.3,0.5-0.1,1.1,0.4,1.4
		c0,0,0.1,0,0.1,0.1c3.4,1.7,6.4,4.2,8.7,7.3C259.4,332.1,260,332.2,260.5,331.9C260.5,331.9,260.5,331.9,260.5,331.9L260.5,331.9z
		 M240.2,321c0-0.6-0.4-1-1-1h-11.9c-0.6,0-1,0.4-1,1s0.4,1,1,1h11.9C239.8,322,240.2,321.6,240.2,321z M216.4,321c0-0.6-0.4-1-1-1
		h-12c-0.6,0-1,0.4-1,1s0.4,1,1,1h12C215.9,322,216.4,321.6,216.4,321z M192.5,321c0-0.6-0.4-1-1-1h-11.9c-0.6,0-1,0.4-1,1
		s0.4,1,1,1h11.9C192,322,192.5,321.6,192.5,321z M168.6,321c0-0.6-0.4-1-1-1h-12c-0.6,0-1,0.4-1,1s0.4,1,1,1h12
		C168.1,322,168.6,321.6,168.6,321z M144.7,321c0-0.6-0.4-1-1-1h-11.9c-0.6,0-1,0.4-1,1s0.4,1,1,1h11.9
		C144.2,322,144.7,321.6,144.7,321L144.7,321z M120.8,321c0-0.6-0.4-1-1-1h-11.9c-0.6,0-1,0.4-1,1s0.4,1,1,1h11.9
		C120.3,322,120.8,321.6,120.8,321z M96.9,321c0-0.6-0.4-1-1-1H84c-0.6,0-1,0.4-1,1s0.4,1,1,1h12C96.5,321.9,96.9,321.5,96.9,321z
		 M73.2,319.4c0.2-0.5,0.1-1.1-0.4-1.3c-3.4-1.7-6.2-4.4-8-7.8c-0.3-0.5-0.9-0.7-1.4-0.4c-0.5,0.3-0.6,0.8-0.4,1.3
		c2,3.7,5.1,6.7,8.8,8.6c0.1,0.1,0.3,0.1,0.4,0.1C72.7,320,73,319.7,73.2,319.4L73.2,319.4z M62.7,299.1v-11.9c0-0.6-0.4-1-1-1
		s-1,0.4-1,1v12c0,0.6,0.4,1,1,1S62.7,299.7,62.7,299.1L62.7,299.1z M62.7,275.3v-12c0-0.6-0.4-1-1-1s-1,0.4-1,1v12c0,0.6,0.4,1,1,1
		S62.7,275.8,62.7,275.3z M62.7,251.4v-5c0-2.1,0.6-4.2,1.8-6c0.3-0.5,0.2-1.1-0.3-1.4s-1.1-0.2-1.4,0.3l0,0
		c-1.4,2.1-2.1,4.6-2.1,7.1v5c0,0.6,0.4,1,1,1S62.7,251.9,62.7,251.4L62.7,251.4z M468.3,234.8c0.5-0.2,0.8-0.7,0.6-1.3c0,0,0,0,0,0
		c-0.2-0.5-0.7-0.8-1.3-0.6c-1.5,0.5-3,0.7-4.6,0.7h-7c-0.6,0-1,0.4-1,1s0.4,1,1,1h7C464.8,235.6,466.6,235.3,468.3,234.8
		L468.3,234.8z M445.1,234.6c0-0.6-0.4-1-1-1h-11.9c-0.6,0-1,0.4-1,1s0.4,1,1,1h11.9C444.7,235.6,445.1,235.1,445.1,234.6
		L445.1,234.6L445.1,234.6z M421.3,234.6c0-0.6-0.4-1-1-1h-11.9c-0.6,0-1,0.4-1,1s0.4,1,1,1h11.9
		C420.8,235.6,421.3,235.1,421.3,234.6L421.3,234.6L421.3,234.6z M397.4,234.6c0-0.6-0.4-1-1-1h-11.9c-0.6,0-1,0.4-1,1s0.4,1,1,1h12
		C396.9,235.6,397.4,235.1,397.4,234.6L397.4,234.6z M373.5,234.6c0-0.6-0.4-1-1-1h-12c-0.6,0-1,0.4-1,1s0.4,1,1,1h12
		C373,235.6,373.5,235.1,373.5,234.6C373.5,234.6,373.5,234.6,373.5,234.6L373.5,234.6z M349.6,234.6c0-0.6-0.4-1-1-1h-11.9
		c-0.6,0-1,0.4-1,1s0.4,1,1,1h12C349.1,235.6,349.6,235.1,349.6,234.6L349.6,234.6z M325.7,234.6c0-0.6-0.4-1-1-1h-11.9
		c-0.6,0-1,0.4-1,1s0.4,1,1,1h11.9C325.2,235.6,325.7,235.1,325.7,234.6L325.7,234.6L325.7,234.6z M301.8,234.6c0-0.6-0.4-1-1-1
		h-11.9c-0.6,0-1,0.4-1,1s0.4,1,1,1h11.9C301.4,235.6,301.8,235.1,301.8,234.6L301.8,234.6L301.8,234.6z M277.9,234.6
		c0-0.6-0.4-1-1-1H265c-0.6,0-1,0.4-1,1s0.4,1,1,1h12C277.5,235.5,277.9,235.1,277.9,234.6L277.9,234.6z M254,234.6c0-0.6-0.4-1-1-1
		h-12c-0.6,0-1,0.4-1,1s0.4,1,1,1h12C253.6,235.6,254,235.1,254,234.6L254,234.6z M230.1,234.6c0-0.6-0.4-1-1-1h-11.9
		c-0.6,0-1,0.4-1,1s0.4,1,1,1h11.9C229.7,235.6,230.1,235.1,230.1,234.6C230.1,234.6,230.1,234.6,230.1,234.6L230.1,234.6z
		 M206.2,234.6c0-0.6-0.4-1-1-1h-11.9c-0.6,0-1,0.4-1,1s0.4,1,1,1h11.9C205.8,235.6,206.2,235.1,206.2,234.6L206.2,234.6
		L206.2,234.6z M182.3,234.6c0-0.6-0.4-1-1-1h-11.9c-0.6,0-1,0.4-1,1s0.4,1,1,1h11.9C181.9,235.6,182.3,235.1,182.3,234.6
		L182.3,234.6L182.3,234.6z M158.4,234.6c0-0.6-0.4-1-1-1h-11.9c-0.6,0-1,0.4-1,1s0.4,1,1,1h11.9C158,235.6,158.4,235.1,158.4,234.6
		L158.4,234.6L158.4,234.6z M134.6,234.6c0-0.6-0.4-1-1-1h-12c-0.6,0-1,0.4-1,1s0.4,1,1,1h12C134.1,235.6,134.6,235.1,134.6,234.6
		C134.6,234.6,134.6,234.6,134.6,234.6L134.6,234.6z M110.7,234.6c0-0.6-0.4-1-1-1h-12c-0.6,0-1,0.4-1,1s0.4,1,1,1h12
		C110.2,235.6,110.7,235.1,110.7,234.6C110.7,234.6,110.7,234.6,110.7,234.6L110.7,234.6z M86.8,234.6c0-0.6-0.4-1-1-1H73.8
		c-0.6,0-1,0.4-1,1s0.4,1,1,1h11.9C86.3,235.6,86.8,235.1,86.8,234.6L86.8,234.6L86.8,234.6z M477.8,226.7c1.2-2.4,1.9-5,1.9-7.6
		v-4.5c0-0.6-0.4-1-1-1s-1,0.4-1,1v4.5c0,2.3-0.6,4.6-1.6,6.7c-0.3,0.5-0.1,1.1,0.4,1.4C476.9,227.4,477.5,227.2,477.8,226.7
		C477.8,226.7,477.8,226.7,477.8,226.7z M479.6,202.6v-11.9c0-0.6-0.4-1-1-1s-1,0.4-1,1v11.9c0,0.6,0.4,1,1,1
		S479.6,203.2,479.6,202.6L479.6,202.6z M479.6,178.8v-4.1c0-2.8-0.7-5.5-2-8c-0.3-0.5-0.9-0.7-1.4-0.4c0,0,0,0,0,0
		c-0.5,0.3-0.7,0.9-0.4,1.4c1.2,2.1,1.8,4.6,1.8,7v4.1c0,0.6,0.4,1,1,1S479.7,179.3,479.6,178.8L479.6,178.8z M468.6,160.1
		c0.2-0.5-0.1-1.1-0.7-1.2c-1.6-0.5-3.2-0.7-4.9-0.7h-7.3c-0.6,0-1,0.4-1,1s0.4,1,1,1h7.3c1.4,0,2.9,0.2,4.3,0.6c0.1,0,0.2,0,0.3,0
		C468.1,160.7,468.5,160.4,468.6,160.1L468.6,160.1z M444.9,159.1c0-0.6-0.4-1-1-1h-12c-0.6,0-1,0.4-1,1s0.4,1,1,1h12
		C444.4,160.1,444.8,159.6,444.9,159.1L444.9,159.1z M421,159.1c0-0.6-0.4-1-1-1h-12c-0.6,0-1,0.4-1,1s0.4,1,1,1h11.9
		C420.5,160.1,420.9,159.6,421,159.1L421,159.1z M397.1,159.1c0-0.6-0.4-1-1-1h-12c-0.6,0-1,0.4-1,1s0.4,1,1,1H396
		C396.5,160.1,397,159.6,397.1,159.1L397.1,159.1z M373.2,159.1c0-0.6-0.4-1-1-1h-12c-0.6,0-1,0.4-1,1s0.4,1,1,1h12
		C372.7,160.1,373.1,159.6,373.2,159.1L373.2,159.1z M349.3,159.1c0-0.6-0.4-1-1-1h-12c-0.6,0-1,0.4-1,1s0.4,1,1,1h12
		C348.8,160.1,349.2,159.6,349.3,159.1L349.3,159.1z M325.4,159.1c0-0.6-0.4-1-1-1h-12c-0.6,0-1,0.4-1,1s0.4,1,1,1h12
		C324.9,160.1,325.4,159.6,325.4,159.1L325.4,159.1z M301.5,159.1c0-0.6-0.4-1-1-1h-12c-0.6,0-1,0.4-1,1s0.4,1,1,1h11.9
		C301,160.1,301.5,159.6,301.5,159.1L301.5,159.1z M277.6,159.1c0-0.6-0.4-1-1-1h-12c-0.6,0-1,0.4-1,1s0.4,1,1,1h11.9
		C277.1,160.1,277.6,159.6,277.6,159.1L277.6,159.1z M253.7,159.1c0-0.6-0.4-1-1-1h-12c-0.6,0-1,0.4-1,1s0.4,1,1,1h11.9
		C253.2,160.1,253.7,159.6,253.7,159.1L253.7,159.1z M229.9,159.1c0-0.6-0.4-1-1-1h-12c-0.6,0-1,0.4-1,1s0.4,1,1,1h12
		C229.4,160,229.8,159.6,229.9,159.1L229.9,159.1z M206,159.1c0-0.6-0.4-1-1-1h-12c-0.6,0-1,0.4-1,1s0.4,1,1,1h11.9
		C205.5,160,205.9,159.6,206,159.1L206,159.1z M182.1,159.1c0-0.6-0.4-1-1-1h-12c-0.6,0-1,0.4-1,1s0.4,1,1,1H181
		C181.5,160.1,182,159.6,182.1,159.1L182.1,159.1z M158.2,159.1c0-0.6-0.4-1-1-1h-12c-0.6,0-1,0.4-1,1s0.4,1,1,1h11.9
		C157.7,160.1,158.1,159.6,158.2,159.1L158.2,159.1z M134.3,159.1c0-0.6-0.4-1-1-1h-12c-0.6,0-1,0.4-1,1s0.4,1,1,1h11.9
		C133.8,160.1,134.2,159.6,134.3,159.1L134.3,159.1z M111.1,156.1c0.4-0.4,0.4-1,0-1.4c0,0,0,0,0,0c-2.5-2.3-3.9-5.6-3.8-9v-1.1
		c0-0.6-0.4-1-1-1s-1,0.4-1,1v1.1c0,3.9,1.6,7.7,4.5,10.4c0.2,0.2,0.4,0.3,0.7,0.3C110.6,156.3,110.8,156.2,111.1,156.1L111.1,156.1
		z M107.2,132.6v-11.9c0-0.6-0.4-1-1-1s-1,0.4-1,1v11.9c0,0.6,0.4,1,1,1S107.2,133.2,107.2,132.6L107.2,132.6z M107.2,108.7v-2.5
		c0-3,0.9-5.9,2.5-8.3c0.3-0.5,0.2-1.1-0.3-1.4c-0.5-0.3-1.1-0.2-1.4,0.3c-1.9,2.8-2.9,6.1-2.9,9.5v2.5c0,0.6,0.4,1,1,1
		S107.1,109.3,107.2,108.7L107.2,108.7z M118.7,91.7c1.1-0.3,2.3-0.4,3.4-0.4h8.3c0.6,0,1-0.4,1-1s-0.4-1-1-1h-8.3
		c-1.3,0-2.6,0.1-3.8,0.4c-0.5,0.1-0.9,0.7-0.8,1.2c0,0,0,0,0,0c0.1,0.5,0.5,0.8,1,0.8C118.6,91.7,118.6,91.7,118.7,91.7L118.7,91.7
		z M142.5,91.1c4.2-0.7,8-3.2,10.4-6.7c0.3-0.5,0.2-1.1-0.2-1.4c-0.5-0.3-1.1-0.2-1.4,0.2c-2.2,3.1-5.4,5.2-9.1,5.8
		c-0.6,0-1,0.5-0.9,1.1c0,0.6,0.5,1,1.1,0.9L142.5,91.1z M155.8,72.4v-8.1c0-1.2,0.1-2.4,0.4-3.5c0.2-0.5-0.1-1.1-0.6-1.3
		c-0.5-0.2-1.1,0.1-1.3,0.6c0,0.1,0,0.1,0,0.2c-0.3,1.3-0.5,2.7-0.5,4v8.1c0,0.6,0.4,1,1,1S155.8,72.9,155.8,72.4L155.8,72.4z
		 M162.8,52.1c2.2-1.3,4.6-1.9,7.1-1.9h4c0.6,0,1-0.4,1-1s-0.4-1-1-1h-4c-2.8,0-5.6,0.7-8.1,2.2c-0.5,0.3-0.6,0.9-0.4,1.4
		c0,0,0,0,0,0C161.7,52.2,162.3,52.4,162.8,52.1C162.8,52.1,162.8,52.1,162.8,52.1L162.8,52.1z M366,49.2c0-0.6-0.4-1-1-1h-11.9
		c-0.6,0-1,0.4-1,1s0.4,1,1,1H365C365.6,50.2,366,49.8,366,49.2z M342.1,49.2c0-0.6-0.4-1-1-1h-11.9c-0.6,0-1,0.4-1,1s0.4,1,1,1h12
		C341.7,50.2,342.1,49.8,342.1,49.2L342.1,49.2z M318.2,49.2c0-0.6-0.4-1-1-1h-11.9c-0.6,0-1,0.4-1,1s0.4,1,1,1h12
		C317.8,50.2,318.2,49.8,318.2,49.2L318.2,49.2z M294.3,49.2c0-0.6-0.4-1-1-1h-11.9c-0.6,0-1,0.4-1,1s0.4,1,1,1h11.9
		C293.9,50.2,294.3,49.8,294.3,49.2L294.3,49.2z M270.4,49.2c0-0.6-0.4-1-1-1h-11.9c-0.6,0-1,0.4-1,1s0.4,1,1,1h11.9
		C270,50.2,270.5,49.8,270.4,49.2L270.4,49.2z M246.5,49.2c0-0.6-0.4-1-1-1h-11.9c-0.6,0-1,0.4-1,1s0.4,1,1,1h11.9
		C246.1,50.2,246.6,49.8,246.5,49.2L246.5,49.2z M222.6,49.2c0-0.6-0.4-1-1-1h-11.9c-0.6,0-1,0.4-1,1s0.4,1,1,1h11.9
		C222.2,50.2,222.7,49.8,222.6,49.2L222.6,49.2z M198.8,49.2c0-0.6-0.4-1-1-1h-11.9c-0.6,0-1,0.4-1,1s0.4,1,1,1h11.9
		C198.3,50.2,198.8,49.8,198.8,49.2L198.8,49.2z M347.9,311v-6c0-0.6-0.4-1-1-1s-1,0.4-1,1v6c0,0.6,0.4,1,1,1S347.9,311.6,347.9,311
		z"/>
	<path class="st1" d="M87.4,156.7v-5.1h-3.3v5.1h-8.3v-5.1h-3.3v5.1h-8.3v-5.1H61v5.1h-3.6v31h33.6v-31H87.4z M68,180.7h-5.3v-5.3
		H68V180.7z M68,172.3h-5.3V167H68V172.3z M76.8,180.7h-5.3v-5.3h5.3V180.7z M76.8,172.3h-5.3V167h5.3V172.3z M85.6,180.7h-5.3v-5.3
		h5.3L85.6,180.7z M85.6,172.3h-5.3V167h5.3L85.6,172.3z"/>
	<path class="st1" d="M281.4,409.7v-5.1h-3.3v5.1h-8.3v-5.1h-3.3v5.1h-8.3v-5.1H255v5.1h-3.6v31H285v-31H281.4z M262,433.7h-5.3
		v-5.3h5.3V433.7z M262,425.3h-5.3V420h5.3V425.3z M270.8,433.7h-5.3v-5.3h5.3V433.7z M270.8,425.3h-5.3V420h5.3V425.3z
		 M279.6,433.7h-5.3v-5.3h5.3V433.7z M279.6,425.3h-5.3V420h5.3V425.3z"/>
	<path class="st1" d="M437.6,37.4v-5.1h-3.3v5.1H426v-5.1h-3.3v5.1h-8.2v-5.1h-3.3v5.1h-3.6v31h33.5v-31L437.6,37.4z M418.2,61.4
		h-5.3v-5.3h5.3V61.4z M418.2,53h-5.3v-5.3h5.3V53z M427,61.4h-5.3v-5.3h5.3V61.4z M427,53h-5.3v-5.3h5.3V53z M435.8,61.4h-5.3v-5.3
		h5.3V61.4z M435.8,53h-5.3v-5.3h5.3V53z"/>
</g>
<g id="freepik--Window--inject-42">
	<path class="st2" d="M183.3,78h260c2.3,0,4.1,1.8,4.1,4.1c0,0,0,0,0,0v258.5l0,0H179.2l0,0V82.1C179.2,79.8,181,78,183.3,78z"/>
	<path class="st3" d="M225.1,165.8c0,3.8-3.1,7-6.9,7c-3.8,0-7-3.1-7-6.9c0-3.8,3.1-7,6.9-7c0,0,0,0,0,0
		C222,158.8,225.1,161.9,225.1,165.8z"/>
	<path class="st4" d="M447.4,107.3l-34.7,33.3c-5.1-0.4-10.2-0.4-15.3,0.2c-0.5,0-0.9-0.1-1.3-0.5c-6.5-5.1-12.6-42.2-15.2-62.4H379
		c2.1,16,8.2,57.8,15.9,63.9c0.7,0.6,1.7,1,2.7,0.9c4.4-0.5,8.8-0.6,13.2-0.3l-28.1,27l-39.5-29.3c-4.1-3-9.8-2.5-13.3,1.1
		c-4.2,4.4-7.5,8.1-9.6,10.7c-2.8,3.5-7.2,9-12.1,15l-14.7-11.8l0,0c8.7-11.5,16.3-21.4,20.7-26.6c9-10.4,30-36.7,41-50.5h-2.4
		c-11.2,14.1-31.2,39.2-40,49.3c-4.5,5.2-12,15.1-20.8,26.6l-20-16.1c0.3-0.4,0.1-1-0.3-1.3c-0.4-0.2-0.8-0.2-1.1,0.1L251,120.9
		c-0.4-0.4-1-0.4-1.3,0c-0.4,0.4-0.4,1,0,1.3c0,0,0.1,0.1,0.1,0.1l19.6,15.8c-2.8,3.6-10.7,13.8-16.3,21.4L200.5,119
		c-0.4-0.3-1-0.2-1.3,0.3c-0.3,0.4-0.2,0.9,0.2,1.2l52.7,40.6c-1.2,1.6-2.2,3-3,4.2c-6.2,9-14.6,17.6-29.2,12.9
		c-15-4.8-17-15.8-17-16.3c0-0.2-0.2-0.4-0.3-0.6l-13.7-11.7c1-7.3,2.2-17.6,3.4-32c1.4-15.3,2.4-30.6,3-39.6h-1.8
		c-1.5,23-3.9,51.8-6.3,70.1l-7.2-6.1v2.5l6.9,5.9c-1.2,9-2.5,15-3.7,15.8c-1.1,0.5-2.2,1.1-3.2,1.8v2.3c1.2-0.9,2.6-1.7,3.9-2.4
		c0.8-0.4,2.4-1,4.6-16.1l12.5,10.7c0.4,2.1,3.4,12.7,18.2,17.4c2.7,0.9,5.6,1.4,8.4,1.4c10.9,0,17.9-7.7,22.9-15
		c0.8-1.2,1.8-2.6,3-4.1l20.3,15.6c-10.9,14-21.6,27-29,34c-8.9,8.3-20.2,18-29.3,25.8c-12.8-8.4-24.9-17.5-25-17.6h-0.1l-0.1-0.1
		l-10.3-5.6v2.1l7.3,4c-1.8,0.4-4.4,1.1-7.3,1.7v1.8c4.6-0.9,8.4-1.9,9.7-2.3c2.1,1.6,12.8,9.6,24.3,17.1
		c-8.6,7.3-15.1,12.6-15.2,12.7c-0.4,0.3-0.4,0.9-0.1,1.3c0.3,0.4,0.9,0.4,1.3,0.1c0.1-0.1,6.8-5.6,15.7-13.1
		c2.6,1.7,5.3,3.4,7.9,4.9l6,3.5c5.2,3.1,11.4,6.8,17.6,10.7L229,278.8c-0.2,0.3-0.3,0.7-0.2,1c0.1,0.3,0.5,0.6,0.8,0.6
		c0.2,0,16.8,1.5,30.2,20.4c11.7,16.5,22.9,30.4,42.5,39.8h4.6c-21.7-9.2-33.3-23.6-45.6-40.9c-11.5-16.2-24.9-20.1-29.8-21
		l17.1-18.6c12.4,7.9,24.1,16.5,25.5,22c2,8.1,11.9,18.1,16.6,22.9c1.2,1.2,2.2,2.3,2.5,2.6c1.3,2,10,6.9,11.7,7.9l0.2,0.1
		c1.7,0.5,12.1,3.3,20.4,3.3c4.3,0,8-0.8,9.6-3.1c2.6-3.6,10-9.5,16-14.2c4.2-3.3,7.9-6.2,9.2-7.8c0.4-0.5,2.1-2,4.8-4.5l7.1,7.1
		l-53.9,44.1h3l52.2-42.8l9.3,9.3l-37.6,33.5h2.9l36.8-32.7c0.4-0.4,0.4-0.9,0.1-1.3c0,0,0,0-0.1-0.1l-9.9-9.9l45.3-37.1l15.4,12.4
		l-56.9,50.5c-2.7,2.4-2.9,6.5-0.5,9.1c1.2,1.4,3,2.2,4.8,2.2c1.5,0,2.9-0.5,4.1-1.5l59.4-51.7l0.8,0.7v-3.9l-0.9,0.8l-7.9-6.3
		l8.8-7.8v-2.5l-10.2,9.1l-15.3-12.3l25.5-20.9V235l-27.1,22.1l-9.6-7.8c12.7-11.1,25.9-22.5,36.7-31.9v-2.5
		c-7.6,6.6-22.7,19.7-38.2,33.2l-19-15.3c16.7-16.5,39.2-38.8,42.8-43.1c6-7.3,8.4-28.7,2.6-38.9c-3.5-6.2-12-8.9-20.5-9.9l32.2-31
		L447.4,107.3z M437.2,273.1l7.9,6.3l-59.1,51.4c-1.9,1.6-4.8,1.4-6.4-0.6s-1.4-4.8,0.6-6.4l0,0L437.2,273.1z M321.9,153.1
		c2-2.6,5.3-6.2,9.5-10.6c2.8-3,7.5-3.4,10.8-0.9l39.3,29.1l-31.2,30l-40.5-32.6C316.5,159.9,321.7,153.3,321.9,153.1L321.9,153.1z
		 M292.4,156.6l14.6,11.8c-5.5,6.8-11.6,14-16.6,19.9l-14-10.8C281.9,170.5,287.3,163.3,292.4,156.6z M254.6,160.7
		c5.6-7.6,13.5-17.7,16.3-21.4l20,16.1c-5.1,6.7-10.5,13.9-16,20.9L254.6,160.7z M246,213.2c7.6-7,18.3-20.2,29.3-34.2l13.9,10.7
		c-4.7,5.4-8.3,9.3-9.5,10c-3.3,1.9-29.5,14.9-41.7,20.9C240.7,218.1,243.4,215.6,246,213.2L246,213.2z M248.3,257.7
		c-6.2-3.9-12.5-7.7-18-10.9c-2.1-1.3-4.1-2.4-5.9-3.5c-2.4-1.4-4.9-3-7.3-4.6c4.8-4.1,10.2-8.7,15.5-13.3l0,0
		c1.8-0.9,43.6-21.5,48-24c1.4-0.8,5.3-5,10.2-10.6h0c0.3,0,0.6-0.1,0.8-0.4c0.2-0.2,0.2-0.5,0.2-0.8c5.2-6,11.4-13.4,16.8-20
		l40.3,32.4L328,221.9l0,0h0l-32.2,39.7l-29-22.7c-0.4-0.3-0.9-0.2-1.3,0.1L248.3,257.7z M333.6,314.9c-3.3,4.7-21.1,0.9-27.9-1
		c-3.8-2.2-10.1-6-10.9-7.2c-0.8-1-1.7-2-2.7-2.9c-4.6-4.7-14.2-14.4-16.1-22c-1.5-6.1-13.3-14.9-26-23l16.4-17.8l29,22.8
		c0.4,0.3,1,0.2,1.3-0.1L328,225l9.8,85.3C336.3,311.7,334.9,313.2,333.6,314.9L333.6,314.9z M364.5,287.5c-3.1,2.8-5.1,4.7-5.6,5.2
		c-1.2,1.5-5,4.4-9,7.5c-3.5,2.8-7.2,5.7-10.4,8.5l-9.8-85.7l20.6-19.8l37.1,29.8c-9.5,9.4-16.8,16.5-17,16.7
		c-0.1,0.1-0.2,0.3-0.3,0.5L364.5,287.5z M409.2,250.6l9.6,7.7l-45.1,36.9l-7.1-7.1C375.2,280.4,391.7,265.9,409.2,250.6
		L409.2,250.6z M407.7,249.4c-15.8,13.7-31.8,27.8-41,36.1l5.2-34.7c1.5-1.5,8.3-8.1,16.9-16.6L407.7,249.4z M388.7,231.7l-37-29.8
		l31.3-30l37.8,28C411.8,208.9,399.1,221.4,388.7,231.7L388.7,231.7z M434,151.7c5.3,9.5,3.1,30.1-2.4,36.8
		c-1.2,1.5-4.7,5.1-9.4,9.9l-37.8-28l29.1-27.9C422.2,143.5,430.8,146.1,434,151.7L434,151.7z"/>
	<rect x="287.5" y="310.3" class="st4" width="150.6" height="26"/>
	<rect x="297.7" y="322.7" class="st5" width="9.9" height="11.3"/>
	<rect x="311.4" y="322.5" class="st5" width="9.9" height="11.6"/>
	<rect x="325.1" y="319.9" class="st5" width="9.9" height="14.2"/>
	<rect x="338.8" y="326.5" class="st5" width="9.9" height="7.5"/>
	<rect x="352.4" y="318.9" class="st5" width="9.9" height="15.1"/>
	<rect x="366.1" y="323.4" class="st5" width="9.9" height="10.6"/>
	<rect x="379.8" y="328.4" class="st5" width="9.9" height="5.7"/>
	<rect x="393.5" y="325.5" class="st5" width="9.9" height="8.5"/>
	<rect x="407.2" y="327.9" class="st5" width="9.9" height="6.1"/>
	<rect x="420.9" y="318.9" class="st5" width="9.9" height="15.1"/>
	<path class="st3" d="M179.9,340.6h67c-4.6-2.2-11.5-5.7-12.3-6.9c-1.3-1.9-8.2-13.9-12-14.5s-5.1,3.8-5.1,3.8l8.2,13.3l-3.1-1.9
		c0,0-7.6-8.2-9.5-9.5s0-6.3,0.6-10.1s5-6.3,6.3-9.5s0-12.6,0-15.8s-5.7-12.6-9.5-20.2s-16.4-22.1-23.4-25.2c-2.3-1-4.8-1.6-7.3-1.9
		L179.9,340.6z"/>
	<polygon class="st3" points="337.5,153.1 327.4,165.8 340.1,182.2 363.4,170.2 	"/>
	<polygon class="st3" points="350.2,210 335.6,223.9 341.3,254.8 357.1,259.2 362.2,246 377.3,231.4 	"/>
	<path class="st0" d="M183.3,78h260c2.3,0,4.1,1.8,4.1,4.1c0,0,0,0,0,0v258.5l0,0H179.2l0,0V82.1C179.2,79.8,181,78,183.3,78z"/>
	<path class="st6" d="M183.3,78h260c2.3,0,4.1,1.8,4.1,4.1c0,0,0,0,0,0v46.4l0,0H179.2l0,0V82.1C179.2,79.8,181,78,183.3,78z"/>
	<rect x="196.7" y="109.6" class="st7" width="211.5" height="8.8"/>
	<path class="st8" d="M443.5,78H196.6v22.7h250.8V81.9C447.4,79.7,445.6,78,443.5,78C443.5,78,443.5,78,443.5,78z"/>
	<path class="st9" d="M183.3,78h260c2.3,0,4.1,1.8,4.1,4.1c0,0,0,0,0,0v10.7l0,0H179.2l0,0V82.1C179.2,79.8,181,78,183.3,78z"/>
	<circle class="st4" cx="436.3" cy="85.6" r="2"/>
	<circle class="st4" cx="428" cy="85.6" r="2"/>
	<circle class="st4" cx="419.7" cy="85.6" r="2"/>
</g>
<g id="freepik--Locations--inject-42">
	<path class="st9" d="M374.9,168h-33.3c-2.6,0-4.7,2.1-4.7,4.7c0,0,0,0,0,0V204c0,2.6,2.1,4.7,4.7,4.7c0,0,0,0,0,0h9.9l7.2,14.3
		l6.6-14.2h9.6c2.6,0,4.7-2.1,4.7-4.7l0,0v-31.3C379.6,170.1,377.5,168,374.9,168L374.9,168z"/>
	<path class="st10" d="M352,183.2l1.1-7.6h2.4v10.8h-1.6v-7.7l-1.2,7.7h-1.6l-1.3-7.6v7.6h-1.5v-10.8h2.4L352,183.2z"/>
	<path class="st10" d="M356.6,178.1c0-1.4,1.2-2.6,2.6-2.6s2.6,1.2,2.6,2.6v5.6c0,1.4-1.2,2.6-2.6,2.6s-2.6-1.2-2.6-2.6V178.1z
		 M358.2,183.8c0,0.8,0.3,1.1,0.9,1.1s0.9-0.3,0.9-1.1V178c0-0.8-0.3-1.1-0.9-1.1s-0.9,0.3-0.9,1.1V183.8z"/>
	<path class="st10" d="M364.3,178.5v7.8h-1.5v-10.8h2.1l1.7,6.4v-6.4h1.5v10.8h-1.7L364.3,178.5z"/>
	<path class="st10" d="M355.2,191.7c-0.5,0-0.9,0.3-0.9,1.1v1.1h-1.6v-1c0-1.7,0.9-2.7,2.5-2.7s2.5,1,2.5,2.7c0,3.4-3.4,4.6-3.4,6.4
		c0,0.1,0,0.2,0,0.2h3.2v1.5h-4.9v-1.3c0-3.2,3.4-3.7,3.4-6.8C356.1,192,355.8,191.7,355.2,191.7z"/>
	<path class="st10" d="M361.3,191.7c-0.5,0-0.9,0.3-0.9,1.1v1.1h-1.6v-1c0-1.7,0.9-2.7,2.5-2.7s2.5,1,2.5,2.7c0,3.4-3.4,4.6-3.4,6.4
		c0,0.1,0,0.2,0,0.2h3.2v1.5h-4.9v-1.3c0-3.2,3.4-3.7,3.4-6.8C362.2,192,361.9,191.7,361.3,191.7z"/>
	<text transform="matrix(0.9013 0 0 1 339 178.9751)"><tspan x="0" y="0" class="st5 st11 st12">REFILL</tspan><tspan x="0" y="13.2" class="st5 st11 st12">SPAIRUM</tspan><tspan x="0" y="26.4" class="st5 st11 st12">here</tspan></text>
	<circle class="st6" cx="358.2" cy="229.9" r="3.7"/>
	<circle class="st6" cx="244.4" cy="137.5" r="3.7"/>
	<path class="st6" d="M296.7,228.6c0,2-1.7,3.7-3.7,3.7s-3.7-1.7-3.7-3.7c0-2,1.7-3.7,3.7-3.7C295,224.9,296.7,226.6,296.7,228.6
		C296.7,228.6,296.7,228.6,296.7,228.6z"/>
	<circle class="st6" cx="214.6" cy="200.8" r="3.7"/>
	<path class="st6" d="M229.9,293.7c0,2-1.7,3.7-3.7,3.7s-3.7-1.7-3.7-3.7c0-2,1.7-3.7,3.7-3.7S229.9,291.6,229.9,293.7L229.9,293.7z
		"/>
	<circle class="st6" cx="401" cy="287.6" r="3.7"/>
	<circle class="st6" cx="419.9" cy="173.9" r="3.7"/>
	<circle class="st6" cx="400.1" cy="138.1" r="3.7"/>
	<path class="st6" d="M410.2,233.8c0,2-1.7,3.7-3.7,3.7c-2,0-3.7-1.7-3.7-3.7c0-2,1.7-3.7,3.7-3.7c0,0,0,0,0,0
		C408.5,230.1,410.2,231.7,410.2,233.8C410.2,233.8,410.2,233.8,410.2,233.8z"/>
	<circle class="st6" cx="308.4" cy="195.4" r="3.7"/>
</g>
<g id="freepik--Character--inject-42">
	<path class="st9" d="M95.5,357c0,0,2.2,25,3,30.2s-2.5,8.5-5.8,12s-4.5,10.8-4.5,16.2s-0.8,33-0.8,34.8s-0.5,6-0.5,6s8-0.2,9-0.2
		s4.8-14.2,5.8-18.2s8.8-29.2,11.8-36.2s3-12.2,4.2-15s2.8-25.2,2.8-25.2s13.5,23.8,14,27s0.8,4-0.5,6.8s-4,7.8-3.8,18.5
		s6.1,29.8,6.1,29.8l0.8,11.8c0,0,4.5,1.8,6.8,2.8s5.8-4.2,5.8-4.2s-0.1-8.8-0.4-15.3s1.5-30,2.5-34s2.5-12.8,1.5-18.2
		s-4.2-30.8-4.2-30.8s-38,2.2-42.8,1.5s-11-1-11-1L95.5,357z"/>
	<path class="st7" d="M100.5,447.8l1.5,7.8c0,0,6.2,5.2,8.8,7.2s4,1.5,4,3.2s-1.8,4.5-6,5.2s-10-0.2-14.8-1.8
		c-2.7-0.8-5.1-2.4-6.9-4.5c0,0-2.6,0.6-2.6-2.4s2.2-9.8,2.2-9.8s-1-3.7,0-4.2s4.4,3.2,4.4,3.2S91.5,443,100.5,447.8z"/>
	<path class="st13" d="M114.6,466.9c-0.5-0.2-1.1-0.1-1.6,0.1c-5.6,3.1-12.3,3.3-18,0.4c-5.9-2.8-8.9-5.6-10.3-7.3
		c-0.2,0.9-0.3,1.8-0.3,2.6c0,3,2.6,2.4,2.6,2.4c1.8,2.1,4.2,3.7,6.9,4.5c4.8,1.5,10.5,2.5,14.8,1.8
		C112.3,470.6,114.2,468.5,114.6,466.9z"/>
	<path class="st7" d="M151.8,447.5c-1.5-0.3-3,0.5-3.6,1.8c-1.1,2.4-2.2,5.5-2.2,5.5c-1.9-0.2-3.8-0.5-5.6-1
		c-0.8-0.5-1.6-1.1-2.2-1.8c0,0-2.2-4.4-3.6-2.9s1.4,6.8,1.4,6.8s-2.2,4.2-2.2,6.8c0.1,1.8,0.4,3.6,1.1,5.2c2.7,0.6,5.4,1,8.1,1
		c3.6,0,3.9-1,7.8-1s14,2.4,17.4,1.6s6.4-3.1,6.2-4.7s-11.8-5.5-15.4-7.8s-4.2-2.1-4.8-3.1S151.8,447.5,151.8,447.5z"/>
	<path class="st6" d="M174.2,465c-3.9,3.9-9,3.3-13.4,2.4c-5.4-1.2-10.9-1.7-16.4-1.4c-3.5,0.2-7,0.1-10.5-0.4
		c0.2,0.8,0.4,1.5,0.7,2.2c2.7,0.6,5.4,1,8.1,1c3.6,0,3.9-1,7.8-1s14,2.4,17.4,1.6C171.3,468.7,174.2,466.6,174.2,465z"/>
	<path class="st7" d="M89.8,348L89,359.2c0,0,18.8,4.2,34.2,3.8s32-6.9,32-6.9l-3.2-11.6c0,0-34.2-0.2-41-0.7s-11-5.1-13.5-4.5
		s-5.5,8.5-5.5,8.5L89.8,348z"/>
	<path class="st14" d="M152,336.2l2.2,11.5c0,0-4.8,2.8-19.2,4s-33-0.5-33-0.5l-3.5-7.5l-1.2,8.8H90c-0.7,0-1.4-0.2-2-0.5l2.2-9.2
		c0,0,1-9.2,5.8-11.5s8.8,0.2,12,3.2s7,2.5,12.2,2.5s27.5-2.2,27.5-2.2S151.5,333.5,152,336.2z"/>
	<path class="st6" d="M144.5,251.2c0,0,9,23,12.8,31.2s7.2,17.8,6.8,23s-6.8,19-6.8,19s-6-39.5-7.2-43.5s-7-26.2-7-26.2
		S140.5,250,144.5,251.2z"/>
	<path class="st6" d="M95.4,242.5c0,0-5.2,5.4-6.9,12.1c-1.6,6.7-2.8,89.8-2.8,91.2s6-1.8,7.3-2.4s6.3-10.1,6.3-10.1l2.4,9.7
		c0,0,11.1-1.2,20.4-1.2s33.7-2.2,33.7-2.2s2.2-13.5,2-20.8S156,300,156,298.2s-7.7-40.2-10.5-45.8s-6.5-10.7-7.1-11.1
		s-7.9-4.6-14.7-5s-11.5-2.2-17.6,0.6S95.4,242.5,95.4,242.5z"/>
	<path class="st0" d="M134.8,267.4c0,0,3.4,19.8,4.4,26.4s3.2,32.7,3.2,36.5v9.1"/>
	<path class="st0" d="M128.7,275.8c0,0,3.8,19.8,5.9,31.7s1.4,28.9,1.4,28.9"/>
	<polyline class="st0" points="106.9,277.4 124.3,275.8 124.9,279.7 108.1,281.1 	"/>
	<polyline class="st0" points="150.3,273.4 140.2,274.2 141,277.6 149.9,276.8 	"/>
	<path class="st9" d="M121.2,224.4c0,0-9.3-1.8-12.1-0.6s-5.4,6.1-6.3,7.7s-9.3,5-9.9,7.5s-0.2,6.5,0.8,7.5s6.9,0.6,8.3,1
		s20.4,12.9,23.6,14.9c3.2,2,8.9,4.8,9.7,4s5.9-13.3,6.6-19.1s-0.2-7.3-2.8-12.1S126.1,225,121.2,224.4z"/>
	<path class="st7" d="M118.4,208.4c0,0,1.4,8.9,1.4,11.3s-3.8,13.9-3.8,13.9s7.7,16.6,11.9,21.2c4.2,4.6,6.3,5.6,6.3,5.6
		s0.6-9.5,1.2-13.9s7-17.4,7-17.4s-9.6,1.5-10.8-4.8s-0.8-11.7-2-14.9S120.8,207,118.4,208.4z"/>
	<path class="st9" d="M132.1,226.2l-4.6-0.9l0.4,4c0,0,2.8,7.4,8.2,11.2c0.3,0.2,0.6,0.4,0.9,0.6c1.1-3.2,5.5-11.9,5.5-11.9
		S134,231.5,132.1,226.2z"/>
	<path class="st7" d="M148.3,205.9l-0.3,5.5c0,0,5,3.6,5.5,5.4s-2.4,4-2.4,4s-0.4,9.6-1.3,11.1s-5,1.6-7.3,1.6s-13.7-3.3-15.7-5
		s-4.3-8-4.3-8s-2.5-8.9-2.9-10.3s1-3.2,7-5.1S148.6,203.3,148.3,205.9z"/>
	<path class="st9" d="M121.3,212.4c0,0,1.4,3.1,4,1.1c1.6-1.4,2.7-3.4,3.1-5.6l-15.3,4.1c0,0-1.2,6.2,1.2,9.2s5.9,1.3,5.7-1.3
		S121.3,212.4,121.3,212.4z"/>
	<path class="st0" d="M146.9,224c0,0-3.3,0.1-5.3-1.7"/>
	<path class="st15" d="M143.3,211.9c0.3,0.9,0.1,1.8-0.3,1.9s-1-0.5-1.2-1.4s-0.1-1.8,0.3-1.9S143,211,143.3,211.9z"/>
	<path class="st9" d="M112.9,212.8c0,0,9-1.5,19.9-4.6s15.6-4.8,15.6-4.8l-4.9-15.3c-0.6-1.3-1.7-2.4-3-3c-3.1-1.4-9.6-1.1-14.2-0.4
		c-6.6,1-11.8,2.9-14.4,7.6c-2,3.9-2.6,8.3-1.5,12.6C111.2,207.4,112.9,212.8,112.9,212.8z"/>
	<path class="st9" d="M129.1,209.3c0,0,16.5-0.9,22.9-2.2s11.5-8.9,11.5-8.9l-15.1,2C141.1,201.1,134.4,204.3,129.1,209.3z"/>
	<path class="st7" d="M122.8,213.8c0,0-1.4-4.2-5-2.8s-1.6,8.4,1.1,11.2s6-1.1,6-1.1"/>
	<path class="st9" d="M140.4,299l17.6-13.1c0.1-0.1,0.3-0.1,0.4-0.1l12.3,1.2c0.4,0,0.7,0.4,0.6,0.8c0,0.2-0.1,0.4-0.3,0.5
		l-15.7,9.4L140.4,299z"/>
	<path class="st7" d="M129.5,299.8c1.7-0.2,3.4-0.9,4.6-2c1.8-1.8,5-7.3,6.4-7.7c3.3-0.7,6.7-1.3,10.1-1.6c1.4,0,2.2,1,1,2.2
		s-6.9,3.8-6.9,3.8l-0.6,2c0,0,15.3-1.8,16.6-1.8c1.1,0.1,1.9,0.9,2,2c0,0.8-3.2,3.2-4.2,4.2c-2.5,2.1-5.1,4.1-7.9,5.9
		c-1.4,0.8-15.9-0.4-16.5-0.4s-4.9,1-4.9,1L129.5,299.8z"/>
	<path class="st0" d="M161,298.6c0,0-6.5,1.4-7.9,2.2s-6.3,0-6.3,0"/>
	<polyline class="st0" points="156.4,302.7 151.9,304.1 147.3,304.3 	"/>
	<path class="st6" d="M106.5,261.5c0.2,3.6-4.2,25.6-4.2,25.6l1,3.2v0.8l28.1,7.7c0,0,0,7.7-1.2,11.1c-0.9,3.1-1.7,6.3-2.2,9.5
		c0,0-12.3-3-22.4-6.5s-25.8-8.5-28.9-11.9s-1.2-12.1-0.8-13.5s11.7-31.1,13.9-35.1s5.4-7.9,9.7-6.7s7.5,6.7,7.9,9.1"/>
	<path class="st0" d="M88.2,291.9c1.5-0.9,3.2-1.7,4.8-2.3c1.8-0.4,8.9,1.2,8.9,1.2"/>
	<path class="st0" d="M82.3,295.2c0,0,1.7-1,3.8-2.2"/>
	<path class="st0" d="M94.9,285.1c-1-0.5-2-0.8-3.1-1c-1.4,0-7.7,3-7.7,3"/>
	<path class="st0" d="M100.2,287.5c0,0-1.2-0.6-2.6-1.2"/>
</g>
</svg>
